<svg width="29" height="59" viewBox="0 0 29 59" fill="none" xmlns="http://www.w3.org/2000/svg">
<path d="M1.32785 16.625C1.88515 17.3332 2.55674 18.0108 2.99973 18.7497C3.64891 19.8008 4.52668 20.7907 5.60244 21.605C5.77799 21.803 6.15153 21.8254 6.21278 22.054C6.38834 22.252 6.53326 22.3357 6.79249 22.3887C7.05172 22.4418 7.19665 22.5255 7.45588 22.5785C7.60081 22.6622 7.86004 22.7152 7.97434 22.6846C8.57648 22.6458 9.09494 22.7519 9.63582 22.4844C9.86442 22.4232 10.093 22.3619 10.2073 22.3313C10.6952 22.3231 11.2973 22.2842 11.7851 22.276C12.7302 22.1453 13.5609 22.0452 14.5366 22.0288C15.7408 21.9511 16.9757 21.9878 18.127 22.1693C19.1332 22.2672 20.1395 22.3651 21.0928 22.7222C22.0154 22.9651 22.5421 23.559 23.0157 24.4121C23.5199 25.3796 23.2771 26.3022 22.6608 27.2024C21.8158 28.1639 20.7341 28.6987 19.4461 28.9213C18.5011 29.0521 17.4948 28.9542 16.6334 28.94C15.5128 28.8727 14.4453 28.5462 13.4614 28.0748C12.9123 27.8544 12.2489 27.6646 11.6998 27.4442C11.2957 27.3075 10.8915 27.1708 10.571 26.8891C10.2506 26.6075 9.93007 26.3258 9.60959 26.0442C8.79307 25.2829 8.00717 24.6359 6.99267 24.0502C6.84774 23.9665 6.61914 24.0278 6.53546 24.1727C6.45179 24.3176 6.51304 24.5462 6.54367 24.6605C6.63555 25.0034 6.84173 25.3157 6.90299 25.5443C7.40723 26.5118 8.02578 27.4486 8.64433 28.3855C9.2935 29.4366 10.1713 30.4265 11.1327 31.2714C11.6288 31.751 12.2391 32.2 12.8188 32.5347C13.2536 32.7858 13.6578 32.9225 14.1456 32.9143C14.862 32.8448 15.6928 32.7447 16.4092 32.6753C16.6378 32.614 16.7827 32.6977 17.0113 32.6364C17.6135 32.5976 18.185 32.4445 18.7565 32.2913C19.3586 32.2525 19.9301 32.0994 20.418 32.0912C21.5079 32.0441 22.4612 32.4012 23.4144 32.7584C24.3677 33.1155 25.2373 33.6175 26.1068 34.1196C27.2663 34.789 28.2277 35.6339 28.5952 37.0055L28.6259 37.1198C28.6565 37.2341 28.6871 37.3484 28.6034 37.4934C28.6341 37.6077 28.5198 37.6383 28.4361 37.7832C28.33 38.3017 27.9034 38.5385 27.4768 38.7753C26.738 39.2183 25.9379 39.4327 25.1071 39.5328C24.1621 39.6635 23.2701 39.535 22.4924 39.3758C21.9739 39.2697 21.5698 39.133 21.0513 39.0269C20.7921 38.9739 20.5329 38.9208 20.3879 38.8371C19.5796 38.5637 18.855 38.1453 18.0997 37.6127C17.3444 37.08 16.6198 36.6616 15.9482 35.984C15.7726 35.786 15.5971 35.5881 15.4522 35.5044C14.552 34.888 13.6824 34.386 12.6148 34.0595C12.4699 33.9758 12.325 33.8921 12.0658 33.8391C12.3332 34.38 12.7149 34.8902 12.9824 35.4311C13.456 36.2843 13.9296 37.1374 14.4032 37.9906C14.6707 38.5315 14.9381 39.0723 15.2892 39.4683C16.0833 40.6031 16.8774 41.7379 18.1511 42.3767C18.2961 42.4604 18.5553 42.5134 18.7002 42.5971C19.9351 42.6337 21.2007 42.7847 22.4355 42.8213C22.9234 42.8131 23.2969 42.8355 23.7847 42.8273C24.5318 42.8721 25.1952 43.0619 25.9729 43.221C26.6057 43.2965 27.1547 43.5169 27.5058 43.9129C28.0019 44.3925 28.3836 44.9027 28.5368 45.4743C28.9185 45.9845 29.041 46.4417 28.79 46.8765C28.4859 47.5705 27.9757 47.9523 27.1449 48.0523C26.7714 48.0299 26.5428 48.0912 26.1693 48.0688C25.3079 48.0545 24.5608 48.0097 23.8362 47.5913C23.6913 47.5077 23.4014 47.3403 23.1422 47.2873C23.1728 47.4016 23.2034 47.5159 23.2034 47.5159C23.3259 47.9731 23.2423 48.118 22.8381 47.9813C22.1747 47.7915 21.6256 47.5711 20.9929 47.4956L20.8786 47.5263L20.9092 47.6406C20.9398 47.7549 21.0541 47.7242 21.0847 47.8385C21.6951 48.2875 22.4197 48.7059 23.2587 49.0937C23.6628 49.2304 24.067 49.3671 24.3875 49.6488C24.9672 49.9835 25.5775 50.4325 25.845 50.9733C26.2573 51.5979 26.5248 52.1388 26.8228 52.7939C27.029 53.1062 26.831 53.2818 26.4575 53.2594C25.7411 53.3288 25.0777 53.1391 24.4143 52.9493C24.1244 52.7819 23.7203 52.6452 23.5447 52.4472C22.9262 51.5104 22.026 50.8941 21.3238 50.1022L21.1788 50.0185C21.0645 50.0491 21.0951 50.1634 21.1258 50.2777C21.332 50.59 21.4238 50.9329 21.63 51.2452C21.9811 51.6411 22.2179 52.0677 22.5691 52.4636C23.0651 52.9433 23.4468 53.4535 23.6 54.025C23.6918 54.3679 23.7837 54.7108 23.9899 55.0231C24.3186 55.7926 24.4187 56.6233 24.2595 57.401C24.1535 57.9195 24.0167 58.3237 23.7351 58.6441C23.5371 58.8197 23.3391 58.9952 23.1636 58.7973C22.9268 58.3707 22.6063 58.089 22.3695 57.6625C22.1939 57.4645 22.1327 57.2359 21.9877 57.1522C21.7509 56.7256 21.3998 56.3297 21.1324 55.7888C20.6894 55.0499 20.5893 54.2192 20.6035 53.3578C20.5647 52.7557 20.4115 52.1842 20.2584 51.6127C20.1053 51.0412 19.8378 50.5003 19.6847 49.9288C19.6765 49.441 19.5846 49.0981 19.5234 48.8695C18.9885 47.7877 18.4536 46.7059 17.8044 45.6548C17.7432 45.4262 17.5983 45.3425 17.4227 45.1445C17.5146 45.4874 17.4922 45.861 17.6983 46.1733C17.729 46.2876 17.8739 46.3712 17.7902 46.5162C17.7372 46.7754 17.9127 46.9734 17.974 47.202C18.4476 48.0551 19.0049 48.7634 19.2499 49.6778C19.4949 50.5922 19.6256 51.5372 19.6114 52.3986C19.5666 53.1457 19.4381 54.0376 19.0197 54.7623C18.883 55.1664 18.6013 55.4869 18.3197 55.8074C17.84 56.3035 16.9481 56.1749 16.5663 55.6647C16.3295 55.2381 15.9784 54.8422 15.7416 54.4156C15.0312 53.1358 14.58 51.9091 14.6696 50.415C14.6839 49.5537 14.9573 48.7453 15.2307 47.937C15.4205 47.2736 15.7552 46.6939 15.945 46.0305C16.0287 45.8856 15.998 45.7713 15.9674 45.657C15.7306 45.2304 15.8367 44.712 15.9428 44.1935C15.9122 44.0792 16.0265 44.0486 15.9958 43.9343C15.8121 43.2485 15.514 42.5933 15.3302 41.9075C14.9097 40.7951 14.5197 39.797 13.9849 38.7152C13.9542 38.6009 13.9236 38.4866 13.748 38.2887C13.7174 38.1743 13.6031 38.205 13.6031 38.205L13.5194 38.3499C13.4358 38.4948 13.497 38.7234 13.5276 38.8377C13.5052 39.2113 13.5971 39.5542 13.9176 39.8358C14.0931 40.0338 14.1544 40.2624 13.9564 40.438C13.7584 40.6135 13.6748 40.7584 13.736 40.987C13.7749 41.5892 13.928 42.1607 14.0811 42.7322C14.1506 43.4486 14.3344 44.1344 14.4038 44.8509C14.3672 46.0858 14.0713 47.2676 13.7755 48.4495C13.1367 49.7232 12.6653 50.7071 11.6448 51.4705C11.2488 51.8217 10.7916 51.9442 10.2731 51.8381C9.75468 51.732 9.23622 51.6259 8.85448 51.1156C8.64829 50.8034 8.32781 50.5217 8.2053 50.0645C7.70106 49.097 7.65402 48.0071 7.83558 46.8558C8.15387 45.3005 8.61708 43.8288 9.48445 42.4938C10.0171 41.7385 10.4661 41.1282 11.205 40.6852C11.5173 40.479 11.7152 40.3034 12.0275 40.0973C12.3092 39.7768 12.2479 39.5482 11.8438 39.4114C11.6988 39.3278 11.5539 39.2441 11.409 39.1604C11.1191 38.9931 11.0579 38.7645 11.1109 38.5052C11.1639 38.246 11.4232 38.2991 11.6824 38.3521C11.9416 38.4052 11.911 38.2908 11.9947 38.1459C12.0477 37.8867 12.0171 37.7724 12.0702 37.5132C12.0395 37.3989 12.1232 37.2539 12.0926 37.1396C12.0313 36.911 11.9701 36.6824 11.9394 36.5681C11.7863 35.9966 11.3739 35.3721 11.2208 34.8006C11.0064 34.0004 10.6471 33.1167 10.2041 32.3778C9.46305 30.9838 8.63832 29.7346 7.81359 28.4855C7.60741 28.1733 7.40123 27.861 7.19504 27.5487C7.11137 27.6936 7.11137 27.6936 7.142 27.8079C7.06653 28.4407 6.99106 29.0735 6.88496 29.5919C6.83192 29.8511 7.00747 30.0491 7.1524 30.1328C7.29733 30.2165 7.47288 30.4144 7.50351 30.5288C8.13027 31.9534 8.64272 33.4087 8.81227 34.9559C8.8511 35.558 9.03486 36.2438 9.0737 36.846C9.02885 37.593 8.98401 38.3401 8.82487 39.1178C8.77182 39.377 8.80245 39.4913 8.6351 39.7812C8.33103 40.4752 7.99633 41.0549 7.69226 41.7489C7.35756 42.3286 6.87794 42.8247 6.2758 42.8635C5.90227 42.8411 5.52874 42.8187 5.12458 42.6819C4.17134 42.3248 3.72834 41.586 3.48333 40.6715C3.36082 40.2143 3.32198 39.6122 3.19948 39.155C2.98509 38.3549 2.80133 37.6691 2.84617 36.922C2.83796 36.4342 2.82975 35.9464 2.96648 35.5422C3.07257 35.0237 3.14804 34.391 3.25413 33.8725C3.29897 33.1255 3.63367 32.5457 3.93774 31.8517C4.35612 31.1271 4.91942 30.4861 5.36842 29.8758C5.65007 29.5553 5.93172 29.2348 5.80921 28.7776C5.73975 28.0612 5.75396 27.1998 5.5702 26.514C5.37823 25.3403 4.87399 24.3729 4.33911 23.2911C4.01042 22.5216 3.48376 21.9277 3.04076 21.1889C3.01014 21.0746 2.83458 20.8766 2.65902 20.6786C2.60598 20.9378 2.408 21.1134 2.43863 21.2277C2.44684 21.7155 2.45504 22.2034 2.69185 22.6299C2.92866 23.0565 3.0818 23.628 3.09 24.1159C3.04516 24.8629 3.11462 25.5794 3.06978 26.3264C3.08619 27.3021 2.95768 28.1941 2.45563 29.0636C1.98421 30.0475 1.51279 31.0314 0.575959 31.6499C-0.162899 32.0929 -0.848707 32.2767 -1.68765 31.8889C-1.97751 31.7216 -2.23674 31.6685 -2.44292 31.3563C-2.82466 30.846 -3.23702 30.2215 -3.42079 29.5357C-3.60455 28.8498 -3.55971 28.1028 -3.51487 27.3557C-3.5537 26.7536 -3.24963 26.0596 -2.8843 25.5942C-2.43531 24.9838 -2.01693 24.2592 -1.423 23.7325C-0.859701 23.0915 -0.120845 22.6485 0.618011 22.2056C1.01396 21.8544 1.32624 21.6483 1.43234 21.1298C1.70578 20.3215 1.49139 19.5214 1.277 18.7213C1.24638 18.607 1.21575 18.4927 1.07082 18.409C0.689082 17.8987 0.307342 17.3885 -0.15807 17.0232C-0.860291 16.2312 -1.59314 15.325 -2.32599 14.4188C-2.53217 14.1066 -2.73835 13.7943 -2.94454 13.482C-2.97516 13.3677 -3.2344 13.3147 -3.3487 13.3453C-3.3487 13.3453 -3.43237 13.4902 -3.51605 13.6351C-3.56909 13.8944 -3.65277 14.0393 -3.59151 14.2679C-3.56089 14.3822 -3.61393 14.6414 -3.58331 14.7557C-3.31587 15.2966 -3.16274 15.8681 -3.0096 16.4396C-2.87889 17.3847 -2.51957 18.2685 -2.73176 19.3054C-2.94395 20.3423 -3.30106 21.2955 -4.09297 21.9978C-4.8012 22.5551 -5.63194 22.6551 -6.18923 21.9469C-6.39541 21.6346 -6.63222 21.2081 -6.7241 20.8652C-7.03037 19.7221 -7.19171 18.6628 -7.01015 17.5116C-6.90406 16.9931 -6.79796 16.4747 -6.43264 16.0092C-6.09794 15.4295 -5.61831 14.9335 -5.25299 14.4681C-4.72032 13.7128 -4.56117 12.9351 -4.92049 12.0513C-5.24918 11.2818 -5.54724 10.6267 -5.87594 9.85718C-6.44144 8.66111 -6.97631 7.57935 -7.51118 6.4976C-7.74799 6.07102 -7.9848 5.64444 -8.19098 5.33216C-8.7789 4.50963 -9.25252 3.65647 -9.84044 2.83394C-10.2528 2.20938 -10.5509 1.5542 -10.8489 0.89902C-10.8796 0.78472 -10.7959 0.639794 -10.7122 0.49486C-10.7122 0.49486 -10.4836 0.433606 -10.453 0.547905C-10.0488 0.684631 -9.72834 0.966277 -9.38544 0.874396C-9.27114 0.843769 -9.09558 1.04175 -9.06495 1.15605C-8.71384 1.552 -8.36273 1.94795 -8.09529 2.48883C-7.82786 3.02971 -7.52979 3.6849 -7.37666 4.25641C-7.10102 5.28512 -6.6274 6.13828 -6.00885 7.07511C-5.59648 7.69966 -5.21475 8.20992 -4.80238 8.83447C-4.56557 9.26105 -4.18383 9.77131 -3.94702 10.1979C-3.38973 10.9061 -2.94674 11.645 -2.38944 12.3532C-2.21389 12.5512 -2.12201 12.8941 -1.94645 13.0921C-1.45041 13.5717 -1.18297 14.1126 -0.60326 14.4473C-0.0235467 14.782 0.556168 15.1167 1.25018 15.4207C1.39511 15.5044 1.65434 15.5575 1.91357 15.6105C2.69126 15.7696 3.522 15.6696 4.20781 15.4858C5.23652 15.2101 6.21219 15.1937 7.18785 15.1773C7.93492 15.2222 8.71261 15.3813 9.40662 15.6854C10.4966 15.6383 11.4192 15.8812 12.0908 16.5588C12.5562 16.9241 13.1359 17.2588 13.5177 17.769C13.93 18.3936 13.9689 18.9957 13.7791 19.6591C13.62 20.4368 13.1097 20.8185 12.3096 21.0329C11.3646 21.1636 10.2746 21.2107 9.35197 20.9679C8.68858 20.7781 7.99456 20.474 7.21687 20.3149C6.43918 20.1557 5.82884 19.7067 5.2185 19.2577C4.28768 18.5271 3.47115 17.7658 2.65463 17.0045C2.15859 16.5249 1.52583 16.4494 0.946113 16.1147C0.946113 16.1147 0.831811 16.1454 0.603208 16.2066C1.00737 16.3433 1.18292 16.5413 1.32785 16.625ZM21.8657 37.9512C22.0106 38.0348 22.0412 38.1491 22.0412 38.1491C21.9269 38.1798 21.8126 38.2104 21.6677 38.1267C21.3472 37.8451 21.0573 37.6777 20.7368 37.3961C20.5613 37.1981 20.3857 37.0001 20.1265 36.9471C20.1265 36.9471 20.0122 36.9777 19.8673 36.894C20.0428 37.092 20.3327 37.2593 20.5082 37.4573C20.6532 37.541 20.7981 37.6247 20.7144 37.7696C20.6308 37.9145 20.4858 37.8309 20.3409 37.7472C20.196 37.6635 20.1653 37.5492 20.0204 37.4655C19.8755 37.3819 19.8142 37.1533 19.502 37.3594C19.3877 37.3901 19.0978 37.2227 18.9529 37.139C18.8916 36.9104 18.7161 36.7125 18.5181 36.888C18.5181 36.888 18.3732 36.8043 18.2589 36.835C18.1139 36.7513 18.0527 36.5227 17.9077 36.439C17.7628 36.3553 17.7322 36.241 17.6179 36.2717C17.3893 36.3329 17.2137 36.1349 17.0688 36.0513C17.0382 35.937 16.8932 35.8533 16.7483 35.7696C16.7483 35.7696 16.6034 35.6859 16.4891 35.7166C16.5197 35.8309 16.5197 35.8309 16.5503 35.9452C17.0157 36.3105 17.3669 36.7065 17.8016 36.9575C18.2671 37.3228 18.8468 37.6575 19.3959 37.8779C19.9449 38.0983 20.6083 38.2881 21.2717 38.4778C21.9351 38.6676 22.7128 38.8267 23.4905 38.9859C23.3149 38.7879 23.1394 38.5899 22.9638 38.392C22.9638 38.392 22.9638 38.392 23.0781 38.3613C23.5129 38.6124 23.9171 38.7491 24.3519 39.0001C24.3519 39.0001 24.4662 38.9695 24.4355 38.8552C24.2069 38.9164 24.1457 38.6878 24.0007 38.6041C24.0007 38.6041 24.0007 38.6041 24.115 38.5735C24.3743 38.6266 24.5498 38.8245 24.8091 38.8776C24.7784 38.7633 24.7478 38.649 24.8315 38.5041C25.0907 38.5571 25.2663 38.7551 25.5255 38.8081C25.4949 38.6938 25.5785 38.5489 25.5479 38.4346C25.8378 38.6019 25.9827 38.6856 26.2726 38.853C26.2419 38.7387 26.2113 38.6244 26.1807 38.5101C26.5236 38.4182 26.7604 38.8448 27.1563 38.4937C27.3543 38.3181 27.6666 38.1119 27.8646 37.9364L27.8339 37.8221C27.7196 37.8527 27.7196 37.8527 27.5747 37.769C27.3155 37.716 26.9726 37.8078 26.7134 37.7548C26.5991 37.7854 26.4541 37.7017 26.3092 37.6181C26.4235 37.5874 26.5378 37.5568 26.6521 37.5262C26.995 37.4343 27.3379 37.3424 27.8257 37.3342C28.1686 37.2423 28.1686 37.2423 28.0461 36.7851C27.8624 36.0993 27.397 35.734 26.9009 35.2544C26.2293 34.5768 25.3904 34.189 24.5514 33.8013C23.5982 33.4442 22.7286 32.9421 21.806 32.6993C21.2875 32.5932 20.6854 32.632 20.0833 32.6709C19.2525 32.771 18.4524 32.9854 17.736 33.0548C16.9053 33.1549 16.0439 33.1407 15.1825 33.1265C14.6947 33.1347 14.2375 33.2572 13.864 33.2348C14.558 33.5388 15.305 33.5837 16.1664 33.5979C16.9971 33.4978 17.8279 33.3977 18.6586 33.2976C18.179 33.7937 17.6299 33.5733 17.1727 33.6958C16.7155 33.8183 16.1134 33.8571 15.6561 33.9796C16.2359 34.3143 16.9217 34.1306 17.5238 34.0917C18.1259 34.0529 18.7281 34.0141 19.4445 33.9446L19.3608 34.0895C19.0179 34.1814 18.675 34.2733 18.3321 34.3652C17.73 34.404 17.1278 34.4428 16.5563 34.596C17.2504 34.9 17.9362 34.7163 18.6526 34.6468C19.369 34.5774 20.0548 34.3936 20.7407 34.2098C19.7732 34.7141 18.7139 34.8754 17.5402 35.0674C18.0056 35.4327 20.8101 34.9263 22.2348 34.2995C22.0674 34.5894 21.8388 34.6506 21.1836 34.9487C20.7264 35.0712 20.2692 35.1937 19.9263 35.2856C19.4691 35.4081 19.0956 35.3857 18.6078 35.3939C18.8139 35.7062 19.0425 35.6449 19.1568 35.6143C20.1019 35.4836 21.0469 35.3529 21.9307 34.9935C22.045 34.9629 22.1593 34.9323 22.1593 34.9323C21.3062 35.4059 20.5367 35.7346 19.561 35.751C19.7366 35.949 19.7366 35.949 20.3387 35.9101C20.5673 35.8489 20.7959 35.7876 21.0245 35.7264C21.2531 35.6651 21.4511 35.4896 21.6797 35.4283C21.6797 35.4283 21.6797 35.4283 21.7103 35.5426C21.5123 35.7182 21.398 35.7488 21.2001 35.9244C21.2001 35.9244 21.2001 35.9244 21.2307 36.0387C22.4043 35.8467 23.3412 35.2281 24.3086 34.7239C23.3494 35.716 22.0921 36.0529 20.8654 36.5041C21.1858 36.7857 21.5288 36.6938 21.8717 36.602C22.5268 36.3039 23.0983 36.1508 23.7535 35.8527C23.9821 35.7914 24.1801 35.6159 24.4087 35.5546L24.4393 35.6689C24.325 35.6996 24.2414 35.8445 24.0128 35.9058C23.3576 36.2038 22.7024 36.5019 21.9329 36.8306C21.9329 36.8306 21.9329 36.8306 21.8492 36.9755C22.68 36.8754 23.3352 36.5773 24.1046 36.2487C24.0516 36.5079 23.7087 36.5998 23.5107 36.7753C23.2821 36.8366 23.0841 37.0121 22.8555 37.0734C24.266 37.308 25.4008 36.5139 26.5132 36.0933C25.9193 36.62 25.1191 36.8344 24.464 37.1324L24.4946 37.2467C24.6089 37.2161 24.7538 37.2998 24.8987 37.3835C25.013 37.3528 25.0437 37.4671 25.0743 37.5814C24.96 37.6121 24.96 37.6121 24.8457 37.6427C24.4722 37.6203 24.2129 37.5672 23.87 37.6591C23.87 37.6591 23.87 37.6591 23.9007 37.7734C23.87 37.6591 24.0456 37.8571 24.3048 37.9101C23.8476 38.0326 23.5802 37.4918 23.123 37.6143C23.1536 37.7286 23.2985 37.8122 23.3292 37.9265C23.3598 38.0408 23.3598 38.0408 23.2761 38.1858C23.1618 38.2164 23.1618 38.2164 23.0169 38.1327C23.0169 38.1327 22.9862 38.0184 22.8719 38.0491C22.4596 37.4245 21.7431 37.494 21.1941 37.2736L21.0798 37.3042C21.0798 37.3042 21.0798 37.3042 20.9961 37.4491C21.2553 37.5022 21.5758 37.7838 21.8657 37.9512ZM18.3331 22.4816C18.2188 22.5123 18.1045 22.5429 17.9902 22.5735C17.3351 22.8716 16.7105 23.2839 16.0553 23.582C15.6287 23.8188 15.1409 23.827 14.7061 23.576C15.3307 23.1636 15.9859 22.8656 16.7247 22.4226C16.7247 22.4226 16.7247 22.4226 16.6941 22.3083C16.5798 22.3389 16.3206 22.2858 16.2063 22.3165C15.7797 22.5533 15.3531 22.7901 15.0408 22.9963C14.6142 23.2331 14.157 23.3556 13.6998 23.4781C14.3244 23.0657 15.0102 22.882 15.4592 22.2716C15.1693 22.1043 14.8571 22.3105 14.6284 22.3717C14.2019 22.6085 13.661 22.876 13.2344 23.1128C13.1201 23.1434 13.0058 23.174 12.8915 23.2047L12.8609 23.0904C12.9446 22.9454 13.1425 22.7699 13.2568 22.7392C13.4548 22.5637 13.5691 22.5331 13.7977 22.4718C13.1956 22.5106 12.6547 22.7781 12.1444 23.1598L12.1138 23.0455C12.1975 22.9006 12.1975 22.9006 12.2812 22.7557C12.3955 22.725 12.4791 22.5801 12.5934 22.5495C12.1056 22.5577 11.7709 23.1374 11.2525 23.0313L11.2218 22.917C11.2525 23.0313 11.3361 22.8864 11.4504 22.8557C11.4504 22.8557 11.4504 22.8557 11.4198 22.7414C11.1912 22.8027 11.0463 22.719 10.8177 22.7803C10.4748 22.8722 10.1012 22.8497 9.87263 22.911C8.95821 23.156 8.24178 23.2255 7.31916 22.9827C7.20486 23.0133 7.17423 22.899 7.05993 22.9296C7.05993 22.9296 7.05993 22.9296 7.09056 23.0439C7.23549 23.1276 7.49471 23.1806 7.63964 23.2643C7.89887 23.3174 8.1581 23.3704 8.38671 23.3091C8.38671 23.3091 8.50101 23.2785 8.53164 23.3928C9.1726 23.9561 9.82779 23.6581 10.6279 23.4437C10.8565 23.3824 11.0851 23.3212 11.3137 23.2599C10.8035 23.6416 10.3156 23.6498 9.62981 23.8336C10.4381 24.1071 11.2076 23.7784 11.8934 23.5946L11.924 23.7089C11.5811 23.8008 11.2382 23.8927 10.8953 23.9845L10.926 24.0988C11.5281 24.06 12.1609 24.1355 12.763 24.0966C13.3651 24.0578 13.9366 23.9047 14.6531 23.8352C13.4264 24.2864 12.1078 24.3947 10.7586 24.3887C11.0485 24.5561 11.369 24.8377 11.7119 24.7458C12.1997 24.7376 12.6569 24.6151 13.1447 24.6069C13.7469 24.5681 14.2041 24.4456 14.7756 24.2924C14.8899 24.2618 14.8899 24.2618 15.0348 24.3455C14.2653 24.6742 13.3203 24.8049 12.4895 24.905C13.0386 25.1254 13.6408 25.0865 14.1286 25.0783C14.7307 25.0395 15.1879 24.917 15.7594 24.7638C15.0206 25.2068 14.2735 25.162 13.4734 25.3764L13.504 25.4907C14.2205 25.4212 14.792 25.2681 15.5084 25.1986L15.5391 25.3129C15.0818 25.4354 14.6246 25.5579 14.1674 25.6805C15.1207 26.0376 16.1188 25.6476 17.0332 25.4026L17.0638 25.5169C16.9495 25.5475 16.7209 25.6088 16.6066 25.6394C16.4923 25.67 16.2637 25.7313 16.1494 25.7619L16.18 25.8762C16.2943 25.8456 16.4393 25.9293 16.5536 25.8987C17.5292 25.8822 18.3824 25.4086 19.2355 24.935L19.2662 25.0493C18.8396 25.2861 18.3293 25.6679 17.7884 25.9353C18.0477 25.9883 18.2763 25.9271 18.5355 25.9801C18.4518 26.1251 18.4518 26.1251 18.3375 26.1557L18.3682 26.27C19.1683 26.0556 19.999 25.9555 20.7379 25.5125C21.2481 25.1308 21.7277 24.6347 22.238 24.253C22.238 24.253 22.2074 24.1387 22.1767 24.0244C21.8645 24.2306 21.5216 24.3225 21.2093 24.5286L21.1787 24.4143C21.4909 24.2082 21.8032 24.002 21.9093 23.4835C21.4521 23.606 21.1174 24.1857 20.5989 24.0796C21.0255 23.8428 21.3378 23.6367 21.5888 23.2019C21.1622 23.4387 20.7663 23.7898 20.1642 23.8286C20.4458 23.5081 20.7581 23.302 21.0704 23.0958C21.1847 23.0651 21.154 22.9508 21.1234 22.8365C21.0091 22.8672 20.8948 22.8978 20.8948 22.8978C20.6132 23.2183 20.1866 23.4551 19.5844 23.4939C19.9804 23.1428 20.2927 22.9366 20.6886 22.5855C20.2845 22.4488 20.2008 22.5937 20.0028 22.7693C19.6905 22.9755 19.4926 23.151 19.1497 23.2429L19.119 23.1286C19.317 22.953 19.4313 22.9224 19.6293 22.7469C19.8273 22.5713 19.9109 22.4264 20.0252 22.3958L19.9946 22.2814C19.4537 22.5489 18.9129 22.8163 18.2883 23.2287C18.868 23.5634 19.0354 23.2735 19.264 23.2123C19.4619 23.0367 19.6905 22.9755 19.8885 22.7999C19.2558 22.7244 18.8068 23.3348 18.2352 23.4879C18.2352 23.4879 18.2352 23.4879 18.2046 23.3736C18.5169 23.1674 18.8292 22.9613 19.2251 22.6101L19.1945 22.4958C19.0802 22.5265 18.8516 22.5877 18.7373 22.6183C18.0821 22.9164 17.5719 23.2981 16.9167 23.5962C16.6044 23.8024 16.3758 23.8636 16.0329 23.9555L16.0023 23.8412C16.7717 23.5125 17.6862 23.2675 18.3331 22.4816ZM6.77946 36.9707C6.67336 37.4891 6.48359 38.1525 6.3775 38.671C6.32445 38.9302 6.2714 39.1894 6.07343 39.365C6.07343 39.365 6.10406 39.4793 5.98975 39.5099C5.41825 39.6631 5.34278 40.2958 5.06113 40.6163C4.97745 40.7612 4.77948 40.9368 4.55087 40.998C4.55087 40.998 4.52025 40.8837 4.40595 40.9144C4.85494 40.304 5.18964 39.7243 5.63864 39.114C5.18144 39.2365 5.18964 39.7243 4.70181 39.7325C5.03651 39.1528 5.51613 38.6568 5.88146 38.1914C5.88146 38.1914 5.85083 38.0771 5.73653 38.1077C5.42425 38.3139 5.2569 38.6037 4.94463 38.8099C5.10377 38.0322 5.87325 37.7035 6.06302 37.0401C6.06302 37.0401 6.06302 37.0401 5.91809 36.9565C5.72012 37.132 5.63644 37.2769 5.43847 37.4525C5.35479 37.5974 5.15682 37.773 4.92821 37.8342C4.58531 37.9261 4.50163 38.071 4.33428 38.3609C4.13631 38.5365 4.05263 38.6814 3.88529 38.9712C3.88529 38.9712 3.85466 38.8569 3.74036 38.8876C3.82403 38.7426 3.90771 38.5977 3.99138 38.4528C4.44038 37.8424 4.88938 37.2321 5.33838 36.6218C5.53636 36.4462 5.73433 36.2706 5.81801 36.1257C6.01598 35.9502 5.98535 35.8359 5.89347 35.493C4.98727 36.2258 4.51585 37.2097 3.69332 37.7976C3.69332 37.7976 3.66269 37.6833 3.54839 37.7139C4.02801 37.2179 4.39334 36.7525 4.84234 36.1421C5.20766 35.6767 5.83222 35.2644 6.16692 34.6846C6.16692 34.6846 6.13629 34.5703 6.02199 34.601C5.90769 34.6316 5.82401 34.7765 5.70971 34.8071C5.23008 35.3032 4.75046 35.7992 4.27083 36.2953C4.07286 36.4708 3.87488 36.6464 3.5626 36.8526C3.8973 36.2728 4.52186 35.8605 4.82593 35.1665C4.232 35.6931 3.81363 36.4178 3.07477 36.8608C3.66049 35.8463 4.53607 34.9991 5.15242 34.0989L5.00749 34.0152C4.44419 34.6562 3.88089 35.2972 3.20328 35.9688C3.20328 35.9688 3.17266 35.8545 3.05836 35.8851C3.14203 35.7402 3.14203 35.7402 3.22571 35.5952C3.78901 34.9543 4.46661 34.2827 4.99928 33.5274C5.11358 33.4968 5.08296 33.3825 5.16663 33.2376C4.82373 33.3294 4.65638 33.6193 4.4584 33.7948C4.17675 34.1153 4.0094 34.4052 3.72775 34.7257C3.61345 34.7563 3.49915 34.7869 3.52978 34.9012C3.52978 34.9012 3.52978 34.9012 3.49915 34.7869C3.6665 34.4971 3.86447 34.3215 4.03182 34.0317C4.39715 33.5662 4.76247 33.1008 5.1278 32.6354C5.21147 32.4905 5.18085 32.3762 5.26452 32.2313L5.11959 32.1476C4.95224 32.4374 4.75427 32.613 4.70122 32.8722C4.5645 33.2764 4.30527 33.2233 3.99299 33.4295C3.96236 33.3152 4.04604 33.1703 4.04604 33.1703C4.24401 32.9947 4.41136 32.7049 4.31948 32.362L4.40316 32.217C4.5705 31.9272 4.65418 31.7823 4.82153 31.4924C4.82153 31.4924 4.82153 31.4924 4.7909 31.3781C4.59293 31.5537 4.42558 31.8435 4.2276 32.0191C4.2276 32.0191 4.1133 32.0497 4.08267 31.9354C4.16635 31.7905 4.13572 31.6762 4.21939 31.5312C4.05204 31.8211 3.44991 31.8599 3.34382 32.3784C3.23772 32.8968 3.01732 33.4459 2.7663 33.8807C2.79693 33.995 2.82755 34.1093 2.82755 34.1093C3.00311 34.3073 2.91944 34.4522 2.86639 34.7115C2.69904 35.0013 2.64599 35.2605 2.47864 35.5504C2.50927 35.6647 2.50927 35.6647 2.5399 35.779C2.62357 35.6341 2.70724 35.4891 2.79092 35.3442C2.89101 36.175 2.32771 36.8159 2.5421 37.616C2.59514 37.3568 2.76249 37.0669 2.81554 36.8077C2.81554 36.8077 2.81554 36.8077 2.92984 36.7771C2.87679 37.0363 2.93805 37.2649 2.91563 37.6385C3.02993 37.6078 3.14423 37.5772 3.22791 37.4323C3.03814 38.0957 2.96267 38.7284 2.85657 39.2469C2.80352 39.5061 2.71985 39.651 2.7811 39.8796C2.90361 40.3369 3.14042 40.7634 3.40786 41.3043C3.46911 41.5329 3.69771 41.4717 3.78139 41.3267C3.97936 41.1512 4.03241 40.8919 4.23039 40.7164C4.31406 40.5715 4.31406 40.5715 4.39774 40.4265C4.51204 40.3959 4.62634 40.3653 4.74064 40.3347C4.77127 40.449 4.8019 40.5633 4.8019 40.5633C4.86315 40.7919 4.77948 40.9368 4.84073 41.1654C4.87136 41.2797 4.75706 41.3103 4.67338 41.4552L4.55908 41.4859C4.61213 41.2266 4.5815 41.1123 4.63455 40.8531C4.3529 41.1736 4.18555 41.4635 3.9039 41.7839L3.96515 42.0125C4.11008 42.0962 4.39994 42.2636 4.62854 42.2023C4.77347 42.286 5.00207 42.2247 5.05512 41.9655C5.07754 41.592 5.21426 41.1878 5.35099 40.7837C5.5878 41.2102 5.45107 41.6144 5.45928 42.1022C5.80218 42.0103 5.96953 41.7205 6.25118 41.4C6.36548 41.3694 6.33486 41.2551 6.30423 41.1408C7.5085 41.0631 7.6228 41.0325 7.41662 40.7202C7.32474 40.3773 7.46146 39.9731 7.48388 39.5996C7.62881 39.6833 7.62881 39.6833 7.77374 39.767C7.79616 39.3934 7.81858 39.0199 7.75732 38.7913L7.87163 38.7607C7.93288 38.9893 7.99413 39.2179 8.20032 39.5301C8.48196 39.2097 8.47376 38.7218 8.49618 38.3483C8.5186 37.9748 8.6247 37.4563 8.53282 37.1134C8.52461 36.6256 8.5164 36.1377 8.47757 35.5356C8.44694 35.4213 8.41631 35.307 8.30201 35.3376C8.12646 35.1396 7.86723 35.0866 7.69167 34.8886C7.69167 34.8886 7.54674 34.8049 7.43244 34.8356C7.31814 34.8662 7.20384 34.8968 6.97524 34.9581C7.18142 35.2704 7.53253 35.6663 7.73871 35.9786L7.88364 36.0623C7.91427 36.1766 7.94489 36.2909 7.86122 36.4358C7.74692 36.4664 7.60199 36.3828 7.48769 36.4134C7.34276 36.3297 7.28151 36.1011 7.10595 35.9031C7.07532 35.7888 6.93039 35.7051 6.89977 35.5908C6.64874 36.0256 6.8243 36.2236 7.03048 36.5359C7.20604 36.7339 7.38159 36.9318 7.55715 37.1298C7.58778 37.2441 7.58778 37.2441 7.6184 37.3584C7.5041 37.389 7.35917 37.3054 7.35917 37.3054C7.18362 37.1074 7.00806 36.9094 6.80188 36.5971C6.74883 36.8564 6.77946 36.9707 6.77946 36.9707ZM3.66092 17.1024C4.30189 17.6657 4.91223 18.1147 5.40827 18.5944C6.2248 19.3556 7.17804 19.7128 8.13129 20.0699C8.68037 20.2903 9.31313 20.3657 9.83159 20.4718C10.2051 20.4943 10.5787 20.5167 10.9522 20.5391C11.5543 20.5003 12.1565 20.4614 12.583 20.2246C12.8953 20.0184 13.0627 19.7286 13.1994 19.3244C13.4728 18.5161 13.1441 17.7466 12.5032 17.1833C11.7479 16.6506 10.909 16.2629 10.07 15.8751C9.63523 15.6241 9.11677 15.518 8.59831 15.4119C7.93492 15.2222 7.21848 15.2916 6.47142 15.2468C6.35712 15.2774 6.21219 15.1937 5.98359 15.255C6.07547 15.5979 6.10609 15.7122 6.41837 15.506C6.53267 15.4754 6.53267 15.4754 6.64698 15.4448C6.76128 15.4141 6.7919 15.5284 6.90621 15.4978C6.7919 15.5284 6.82253 15.6427 6.70823 15.6734C6.47963 15.7346 6.13672 15.8265 5.93875 16.0021C5.82444 16.0327 5.71014 16.0633 5.51217 16.2389C5.80202 16.4062 5.94695 16.4899 6.12251 16.6879C6.67159 16.9083 6.93903 17.4491 7.32077 17.9594C7.32077 17.9594 7.23709 18.1043 7.26772 18.2186L7.12279 18.135C6.94724 17.937 6.77168 17.739 6.59613 17.541C6.5655 17.4267 6.42057 17.343 6.27564 17.2594L6.16134 17.29C6.3369 17.488 6.39815 17.7166 6.57371 17.9146C6.57371 17.9146 6.57371 17.9146 6.4594 17.9452C6.3451 17.9758 6.31448 17.8615 6.31448 17.8615C5.99399 17.5799 5.75718 17.1533 5.4367 16.8716C5.11621 16.59 4.7651 16.194 4.27727 16.2022C4.62838 16.5982 5.06317 16.8492 5.41428 17.2452C5.76539 17.6411 5.97157 17.9534 6.32268 18.3493C6.32268 18.3493 6.20838 18.38 6.23901 18.4943C6.06345 18.2963 5.77359 18.1289 5.59804 17.931C5.04075 17.2227 4.51408 16.6288 3.70576 16.3554C3.3016 16.2186 2.89744 16.0819 2.60759 15.9146C2.60759 15.9146 2.49329 15.9452 2.37899 15.9758C2.8444 16.3412 3.19551 16.7371 3.66092 17.1024ZM24.7184 52.2553C24.802 52.1103 24.6877 52.141 24.7184 52.2553C25.1756 52.1328 25.694 52.2389 26.0982 52.3756C26.1512 52.1163 26.1206 52.002 25.8614 51.949C25.6021 51.896 25.198 51.7592 24.9388 51.7062C24.4203 51.6001 24.0998 51.3184 23.7487 50.9225C23.4282 50.6408 23.1077 50.3592 22.6729 50.1082C22.528 50.0245 22.528 50.0245 22.3831 49.9408C22.3218 49.7122 22.4055 49.5673 22.4586 49.308C22.924 49.6734 23.2751 50.0693 23.9609 49.8856C23.5261 49.6345 23.1219 49.4978 22.8015 49.2162C22.5116 49.0488 22.1074 48.9121 21.8176 48.7447C21.8176 48.7447 21.787 48.6304 21.6727 48.6611C21.1012 48.8142 20.948 48.2427 20.7418 47.9304C20.2152 47.3365 19.6579 46.6283 19.2455 46.0037C18.8638 45.4935 18.3371 44.8995 17.9554 44.3893C17.9247 44.275 17.7798 44.1913 17.7492 44.077C17.7104 43.4749 17.2449 43.1095 16.8938 42.7136C16.8632 42.5993 16.7183 42.5156 16.8326 42.485C17.053 41.9359 16.7019 41.5399 16.3508 41.144C15.7628 40.3215 15.1749 39.4989 14.6176 38.7907C14.587 38.6764 14.4727 38.707 14.3278 38.6233C14.3584 38.7376 14.389 38.8519 14.4196 38.9663C14.8626 39.7051 15.2219 40.5889 15.467 41.5033C15.4976 41.6176 15.5588 41.8462 15.8181 41.8993C15.8181 41.8993 15.963 41.9829 15.9936 42.0972C16.6122 43.0341 17.2307 43.9709 17.735 44.9384C18.1167 45.4486 18.4984 45.9589 18.7965 46.614C19.1865 47.6121 19.5458 48.4959 19.9357 49.494C20.0276 49.8369 20.2644 50.2635 20.3563 50.6064C20.4788 51.0636 20.7156 51.4902 20.8381 51.9474C20.93 52.2903 21.0525 52.7475 21.0301 53.121C21.0241 54.4702 21.4753 55.6969 22.3531 56.6868C22.5899 57.1134 22.9716 57.6236 23.2084 58.0502C23.239 58.1645 23.3533 58.1339 23.4676 58.1033C23.437 57.989 23.5207 57.844 23.5207 57.844C23.4901 57.7297 23.4901 57.7297 23.3451 57.6461C23.3451 57.6461 23.3145 57.5318 23.2839 57.4174C23.4288 57.5011 23.5737 57.5848 23.5737 57.5848L23.688 57.5542C23.6574 57.4399 23.5962 57.2113 23.5655 57.097C23.5655 57.097 23.6798 57.0663 23.8248 57.15C23.7553 56.4336 22.9776 56.2744 22.7102 55.7336C23.0307 56.0152 23.4654 56.2662 23.7859 56.5479C23.4572 55.7784 22.6489 55.5049 22.0386 55.056C22.0386 55.056 22.0386 55.0559 22.1223 54.911C22.702 55.2457 23.1674 55.611 23.7471 55.9457C23.7471 55.9457 23.8614 55.9151 23.8308 55.8008C23.449 55.2906 22.755 54.9865 22.259 54.5069C22.6938 54.7579 23.0142 55.0395 23.4184 55.1763C23.4184 55.1763 23.4184 55.1763 23.5021 55.0313C23.1203 54.5211 22.3426 54.3619 21.8772 53.9966C21.8772 53.9966 21.8772 53.9966 21.9609 53.8517C22.1365 54.0497 22.2814 54.1333 22.5406 54.1864C22.3651 53.9884 22.0752 53.8211 21.8997 53.6231C21.8997 53.6231 22.014 53.5925 21.9833 53.4781C22.3038 53.7598 22.7386 54.0108 23.0591 54.2925C23.0591 54.2925 23.0591 54.2925 23.1428 54.1475C22.7916 53.7516 22.1283 53.5618 21.7771 53.1659C21.7771 53.1659 21.7771 53.1659 21.8608 53.0209C22.0058 53.1046 22.1507 53.1883 22.2956 53.272C22.4405 53.3556 22.5855 53.4393 22.7304 53.523C22.7304 53.523 22.7304 53.523 22.8447 53.4924C22.8141 53.3781 22.6691 53.2944 22.5548 53.325C22.265 53.1577 22.0894 52.9597 21.7996 52.7923C21.5097 52.625 21.5934 52.4801 21.7914 52.3045C21.4933 51.6493 21.0809 51.0248 20.8972 50.339C20.5685 49.5695 20.1561 48.9449 20.0867 48.2285C20.0254 47.9999 20.1091 47.855 20.3377 47.7937C20.4296 48.1366 20.697 48.6775 21.0481 49.0734C21.3155 49.6143 21.8116 50.0939 22.277 50.4593C22.7118 50.7103 22.9486 51.1369 23.2997 51.5328C23.4753 51.7308 23.5059 51.8451 23.6814 52.0431C24.0019 52.3247 24.2918 52.4921 24.5816 52.6594C25.2144 52.7349 25.7329 52.841 26.335 52.8022C25.7859 52.5818 25.1531 52.5063 24.7184 52.2553ZM17.9149 48.8104C18.2354 49.092 18.4722 49.5186 18.5947 49.9758C18.6254 50.0901 18.656 50.2044 18.5723 50.3494C18.5723 50.3494 18.5723 50.3494 18.458 50.38C18.2518 50.0677 18.015 49.6411 17.9231 49.2982L17.8088 49.3289C17.9007 49.6718 17.8783 50.0453 18.1988 50.3269C18.3743 50.5249 18.5499 50.7229 18.6111 50.9515C18.6418 51.0658 18.703 51.2944 18.4744 51.3557C18.4744 51.3557 18.3907 51.5006 18.4214 51.6149C18.452 51.7292 18.5969 51.8129 18.6276 51.9272C18.6582 52.0415 18.5745 52.1864 18.5745 52.1864C18.5439 52.0721 18.4296 52.1027 18.399 51.9884C18.2234 51.7904 18.1621 51.5618 17.9866 51.3639C17.8192 51.6537 17.8499 51.768 18.0254 51.966C18.2316 52.2783 18.2929 52.5069 18.499 52.8192C18.5297 52.9335 18.446 53.0784 18.446 53.0784C18.4154 52.9641 18.3011 52.9947 18.2704 52.8804C18.0949 52.6824 18.0336 52.4538 18.003 52.3395L17.8887 52.3702C17.9193 52.4845 17.8357 52.6294 17.8663 52.7437C17.9888 53.2009 18.0807 53.5438 18.2032 54.001C18.2338 54.1153 18.1195 54.1459 18.1501 54.2602C18.1195 54.1459 18.0052 54.1766 17.9746 54.0623C17.9439 53.948 17.8827 53.7194 17.9664 53.5744C17.9357 53.4601 17.9357 53.4601 17.9051 53.3458L17.7908 53.3765C17.7684 53.75 17.7766 54.2378 17.7848 54.7257C17.2581 54.1317 17.4479 53.4683 17.5234 52.8356C17.5988 52.2028 17.5294 51.4864 17.7191 50.823C17.8252 50.3045 17.817 49.8167 17.6945 49.3595C17.5944 48.5287 17.4107 47.8429 17.3106 47.0122C17.28 46.8979 17.2187 46.6693 17.1881 46.555C17.1575 46.4407 17.1268 46.3264 17.2105 46.1815C17.1799 46.0672 17.2636 45.9222 17.2023 45.6936C17.1941 45.2058 17.0716 44.7486 16.9797 44.4057C16.9184 44.1771 16.7429 43.9791 16.6816 43.7505L16.5673 43.7811C16.6898 44.2383 16.8124 44.6955 16.9349 45.1527C16.9961 45.3814 17.0574 45.61 16.7145 45.7018L16.6308 45.8468C16.5247 46.3652 16.3043 46.9143 16.1676 47.3185C16.1676 47.3185 16.1982 47.4328 16.0839 47.4634C16.0839 47.4634 16.0839 47.4634 16.1982 47.4328C16.3125 47.4021 16.4268 47.3715 16.5411 47.3409C16.4574 47.4858 16.4881 47.6001 16.3738 47.6307C16.2064 47.9206 15.9248 48.2411 15.7574 48.5309C15.6737 48.6759 15.7044 48.7902 15.7044 48.7902C15.7044 48.7902 15.735 48.9045 15.8493 48.8739C16.1309 48.5534 16.5269 48.2023 16.8085 47.8818C16.8085 47.8818 16.8392 47.9961 16.9535 47.9654C16.8698 48.1104 16.8698 48.1104 16.7861 48.2553C16.4208 48.7207 16.0555 49.1861 15.6901 49.6515C15.6065 49.7965 15.5228 49.9414 15.5534 50.0557C15.5534 50.0557 15.5534 50.0557 15.6984 50.1394C15.98 49.8189 16.2617 49.4984 16.5433 49.1779C16.5433 49.1779 16.5739 49.2922 16.6882 49.2616C16.3535 49.8413 15.7596 50.368 15.5698 51.0314C15.5698 51.0314 15.5698 51.0314 15.7148 51.115C15.9127 50.9395 16.0801 50.6496 16.2781 50.4741L16.423 50.5577C16.2556 50.8476 16.1189 51.2518 15.8373 51.5722C15.8373 51.5722 15.723 51.6029 15.7536 51.7172C15.7842 51.8315 15.7842 51.8315 15.7006 51.9764C15.8149 51.9458 15.8149 51.9458 15.8985 51.8009C16.0659 51.511 16.3475 51.1905 16.5149 50.9007C16.5149 50.9007 16.5149 50.9007 16.6598 50.9843C16.6904 51.0986 16.6068 51.2436 16.6068 51.2436C16.47 51.6477 16.1884 51.9682 16.0517 52.3724C15.968 52.5173 15.9986 52.6316 16.0292 52.7459L16.1742 52.8296C16.5395 52.3642 16.8742 51.7844 17.2395 51.319L17.3845 51.4027C17.4151 51.517 17.3008 51.5476 17.3314 51.6619C17.2477 51.8069 17.0804 52.0967 16.9967 52.2416L16.913 52.3866C17.2335 52.6682 16.9212 52.8744 16.9825 53.103C17.0968 53.0724 17.2417 53.1561 17.2417 53.1561C17.1887 53.4153 17.052 53.8194 16.9989 54.0787C16.9152 54.2236 16.9765 54.4522 17.0377 54.6808C17.2439 54.9931 17.4195 55.1911 17.595 55.389C17.9155 55.6707 18.3727 55.5482 18.7687 55.1971C18.9667 55.0215 19.134 54.7317 19.2177 54.5867C19.4381 54.0376 19.5748 53.6335 19.7952 53.0844C19.7952 53.0844 19.7952 53.0844 19.7646 52.9701C19.146 52.0333 19.3888 51.1106 18.9152 50.2575C18.709 49.9452 18.8458 49.541 18.7539 49.1981C18.7232 49.0838 18.5783 49.0002 18.464 49.0308C18.4334 48.9165 18.2885 48.8328 18.2578 48.7185C18.0823 48.5205 17.9067 48.3226 17.8761 48.2083L17.7618 48.2389C17.7087 48.4981 17.7394 48.6124 17.9149 48.8104ZM22.5991 45.7177C22.6297 45.832 22.546 45.9769 22.546 45.9769C22.4011 45.8932 22.2868 45.9238 22.2562 45.8095C22.1949 45.5809 22.1031 45.238 22.0418 45.0094C21.9275 45.0401 21.8132 45.0707 21.8132 45.0707C21.6376 44.8727 21.3478 44.7054 21.1722 44.5074C21.0273 44.4237 20.913 44.4543 20.7987 44.485C20.6844 44.5156 20.6538 44.4013 20.5088 44.3176C20.6231 44.287 20.7374 44.2564 20.8517 44.2257C21.5988 44.2706 22.1397 44.0031 22.8255 43.8194C22.9398 43.7887 23.0541 43.7581 23.1684 43.7275C23.001 44.0174 22.7724 44.0786 22.5132 44.0256C22.2846 44.0868 22.056 44.1481 21.8274 44.2093L21.858 44.3236C21.9723 44.293 22.0866 44.2624 22.2009 44.2317C22.6581 44.1092 23.2297 43.9561 23.6869 43.8336C23.8012 43.803 23.8012 43.803 23.9461 43.8866C23.9767 44.0009 23.893 44.1459 23.893 44.1459C23.6644 44.2071 23.3215 44.299 23.0929 44.3603C22.9786 44.3909 22.8643 44.4215 22.75 44.4521C23.2379 44.4439 23.84 44.4051 24.2666 44.1683C24.2666 44.1683 24.3196 43.9091 23.9991 43.6274C24.1134 43.5968 24.2277 43.5662 24.342 43.5355C24.4563 43.5049 24.5706 43.4743 24.6849 43.4436C24.6849 43.4436 24.6849 43.4436 24.6543 43.3293C24.54 43.36 24.5094 43.2457 24.3951 43.2763C24.0216 43.2539 23.5031 43.1478 23.2214 43.4683C23.2214 43.4683 23.1071 43.4989 22.9928 43.5295C22.4213 43.6827 21.9029 43.5766 21.3926 43.9583C21.2783 43.9889 21.2783 43.9889 21.164 44.0195C21.6743 43.6378 22.2764 43.599 22.8173 43.3315C22.3601 43.454 21.7579 43.4929 21.3007 43.6154C20.8435 43.7379 20.272 43.891 19.8148 44.0135C20.1577 43.9217 20.5843 43.6849 20.9272 43.593L20.8966 43.4787C20.4394 43.6012 19.8679 43.7543 19.4107 43.8768L19.38 43.7625C19.4943 43.7319 19.7229 43.6706 19.8066 43.5257C19.8066 43.5257 19.8066 43.5257 19.776 43.4114C19.3494 43.6482 18.9452 43.5115 18.435 43.8932C18.7249 44.0606 19.0453 44.3422 19.3352 44.5096C20.7539 45.232 21.9439 46.0157 23.1646 46.9137C23.9199 47.4464 24.6139 47.7505 25.4752 47.7647C26.0467 47.6115 26.5346 47.6033 27.1367 47.5645C27.3653 47.5033 27.5939 47.442 27.9062 47.2358C28.3022 46.8847 28.6062 46.1907 28.3082 45.5355C28.2469 45.3069 27.904 45.3988 27.6754 45.46C27.5305 45.3764 27.3019 45.4376 27.0426 45.3846C27.0426 45.3846 27.0426 45.3846 27.012 45.2703C27.2406 45.209 27.5835 45.1171 27.8121 45.0559L27.7815 44.9416C27.2937 44.9498 26.9201 44.9274 26.4323 44.9356L26.4017 44.8213C26.7446 44.7294 27.0875 44.6375 27.3161 44.5763C27.3161 44.5763 27.3161 44.5763 27.2855 44.462C27.1712 44.4926 27.1405 44.3783 27.0262 44.4089C26.7976 44.4702 26.569 44.5314 26.3098 44.4784C26.0812 44.5396 25.9363 44.4559 26.2179 44.1355C26.1036 44.1661 25.9893 44.1967 25.875 44.2273C25.7607 44.258 25.6158 44.1743 25.6158 44.1743C25.5239 43.8314 25.3259 44.0069 25.0973 44.0682C24.8687 44.1295 24.6401 44.1907 24.3809 44.1377L24.3502 44.0234C24.6932 43.9315 25.0361 43.8396 25.4626 43.6028C25.4626 43.6028 25.4626 43.6028 25.432 43.4885C25.0891 43.5804 24.7462 43.6722 24.2584 43.6805C24.1441 43.7111 24.0298 43.7417 24.0604 43.856C23.9849 44.4888 23.4971 44.497 23.0399 44.6195C22.697 44.7114 22.4684 44.7726 22.1255 44.8645C22.6746 45.0849 23.1318 44.9624 23.7033 44.8093C24.0462 44.7174 24.3585 44.5112 24.6707 44.305C24.785 44.2744 24.8993 44.2438 24.8993 44.2438C24.8157 44.3887 24.8157 44.3887 24.732 44.5336C24.7402 45.0214 24.283 45.144 23.7115 45.2971C23.5972 45.3277 23.5972 45.3277 23.4829 45.3583C23.4829 45.3583 23.4829 45.3583 23.5135 45.4726C23.6278 45.442 23.6584 45.5563 23.7727 45.5257C24.3749 45.4869 25.0607 45.3031 25.6016 45.0357C25.7159 45.005 25.7159 45.005 25.8302 44.9744C25.8608 45.0887 25.8914 45.203 25.7771 45.2336C25.4342 45.3255 25.2056 45.3868 24.8933 45.593C24.779 45.6236 24.6647 45.6542 24.581 45.7991C25.3894 46.0726 26.0445 45.7745 26.6691 45.3622C26.5018 45.652 26.4181 45.7969 25.9609 45.9194C25.618 46.0113 25.3587 45.9583 25.0158 46.0502C25.7098 46.3542 26.3957 46.1705 27.0202 45.7581C27.0284 46.2459 26.5406 46.2541 26.3732 46.544C26.7161 46.4521 26.9754 46.5052 27.1733 46.3296C27.4856 46.1234 27.7449 46.1765 28.149 46.3132C27.7531 46.6643 27.2652 46.6725 26.8387 46.9093C26.8387 46.9093 26.8387 46.9093 26.8693 47.0236C27.2122 46.9317 27.4408 46.8705 27.7837 46.7786C27.6163 47.0685 27.2734 47.1603 26.9305 47.2522C26.8162 47.2829 26.7856 47.1686 26.7856 47.1686C26.6937 46.8256 26.3202 46.8032 26.061 46.7502C26.061 46.7502 25.9467 46.7808 25.916 46.6665C25.4812 46.4155 25.0465 46.1645 24.528 46.0584C24.4137 46.089 24.2688 46.0053 24.0095 45.9523C24.0708 46.1809 24.132 46.4095 24.2239 46.7524C23.7891 46.5014 23.6973 46.1585 23.4911 45.8462C23.4911 45.8462 23.4911 45.8462 23.3768 45.8768C23.4074 45.9911 23.438 46.1054 23.3544 46.2503C23.385 46.3646 23.2707 46.3953 23.187 46.5402C23.1564 46.4259 23.0421 46.4565 23.0115 46.3422C22.9808 46.2279 22.9502 46.1136 22.9196 45.9993C22.8277 45.6564 22.8277 45.6564 22.4542 45.634C22.4235 45.5197 22.5685 45.6034 22.5991 45.7177ZM-0.0223665 28.5025C-0.448947 28.7394 -0.669344 29.2884 -1.27148 29.3273C-0.708177 28.6863 -0.144875 28.0453 0.449054 27.5187L0.418427 27.4044C-0.030573 28.0147 -0.685757 28.3128 -1.31031 28.7251L-1.34094 28.6108C-1.00624 28.0311 -0.55724 27.4208 -0.222542 26.8411C-0.222542 26.8411 -0.253168 26.7268 -0.36747 26.7574C-0.79405 26.9942 -1.0757 27.3147 -1.50228 27.5515L-1.53291 27.4372C-0.938979 26.9105 -0.314423 26.4982 0.165205 26.0021C0.64483 25.5061 1.41431 25.1774 1.68776 24.3691C0.636622 25.0182 -0.238956 25.8654 -1.17579 26.4839C-1.17579 26.4839 -1.20642 26.3696 -1.32072 26.4003C-0.924764 26.0492 -0.612487 25.843 -0.216536 25.4919C0.179417 25.1408 0.605997 24.9039 0.887648 24.5835C1.1693 24.263 1.74081 24.1098 1.8469 23.5914C0.993742 24.065 0.461069 24.8203 -0.422718 25.1796C-0.453345 25.0653 -0.483972 24.951 -0.514599 24.8367C0.0487031 24.1957 0.726305 23.5241 1.2896 22.8832C0.695678 23.4098 -0.01255 23.9671 -0.606479 24.4938C-0.606479 24.4938 -0.637107 24.3795 -0.751409 24.4101C-0.469758 24.0896 -0.15748 23.8834 0.124171 23.563L0.0935441 23.4487C-0.416708 23.8304 -0.926962 24.2121 -1.40659 24.7082L-1.37596 24.8225C-1.26166 24.7918 -1.14736 24.7612 -0.918756 24.7C-1.00243 24.8449 -0.971804 24.9592 -1.08611 24.9898C-1.56573 25.4859 -2.15966 26.0125 -2.63929 26.5086C-2.75359 26.5392 -2.72296 26.6535 -2.69233 26.7678C-2.38006 26.5616 -2.09841 26.2411 -1.78613 26.0349L-1.7555 26.1492C-2.12083 26.6147 -2.48615 27.0801 -2.88211 27.4312C-2.88211 27.4312 -2.88211 27.4312 -2.85148 27.5455C-2.5392 27.3393 -2.34122 27.1637 -2.05957 26.8433L-2.02895 26.9576C-2.36364 27.5373 -2.9882 27.9496 -3.29227 28.6437C-3.29227 28.6437 -3.26164 28.758 -3.14734 28.7273C-2.75139 28.3762 -2.50037 27.9414 -2.10441 27.5903C-2.26356 28.368 -3.00241 28.811 -3.19218 29.4744L-3.04726 29.5581C-2.96358 29.4131 -2.84928 29.3825 -2.7656 29.2376C-2.68193 29.0927 -2.59826 28.9477 -2.48395 28.9171C-2.36965 28.8865 -2.36965 28.8865 -2.25535 28.8559C-2.22472 28.9702 -2.33902 29.0008 -2.3084 29.1151C-2.47575 29.4049 -2.7574 29.7254 -2.92475 30.0153C-3.00842 30.1602 -3.00842 30.1602 -2.97779 30.2745C-2.97779 30.2745 -2.97779 30.2745 -2.94717 30.3888C-2.66552 30.0683 -2.46754 29.8928 -2.18589 29.5723C-2.18589 29.5723 -2.18589 29.5723 -2.04096 29.656C-2.12464 29.8009 -2.09401 29.9152 -2.17768 30.0601C-2.26136 30.2051 -2.34503 30.35 -2.42871 30.4949C-2.59606 30.7848 -2.58785 31.2726 -2.29799 31.4399C-2.26736 31.5542 -2.03876 31.493 -2.03876 31.493C-1.61218 31.2562 -1.21623 30.9051 -0.934581 30.5846L-0.965209 30.4703C-1.19381 30.5315 -1.50609 30.7377 -1.73469 30.799L-1.76532 30.6847C-1.03467 29.7538 -0.295812 29.3109 -0.0223665 28.5025ZM12.4705 40.8361C12.5318 41.0647 12.4175 41.0953 12.1889 41.1566C11.846 41.2485 11.846 41.2485 11.8235 41.622C11.5949 41.6833 11.4806 41.7139 11.252 41.7751C11.0234 41.8364 10.7111 42.0426 10.4825 42.1038C10.3682 42.1345 10.2846 42.2794 10.2009 42.4243L10.2315 42.5386C10.4601 42.4774 10.5438 42.3324 10.7724 42.2712C10.8867 42.2406 10.9704 42.0956 11.199 42.0344C11.3133 42.0037 11.4276 41.9731 11.5725 42.0568C11.4888 42.2017 11.5195 42.316 11.4052 42.3466C11.0929 42.5528 10.6663 42.7896 10.354 42.9958C10.156 43.1714 9.92744 43.2326 9.72947 43.4082C9.61517 43.4388 9.53149 43.5837 9.59275 43.8123L9.70705 43.7817C10.3316 43.3694 11.0705 42.9264 11.7256 42.6283C11.9236 42.4527 12.0073 42.3078 11.946 42.0792C11.9154 41.9649 12.0297 41.9343 12.1134 41.7894C12.144 41.9037 12.2889 41.9873 12.2053 42.1323C12.1522 42.3915 12.1298 42.765 12.0768 43.0243C12.4503 43.0467 12.534 42.9017 12.4421 42.5588C12.4645 42.1853 12.4032 41.9567 12.5706 41.6668L12.6849 41.6362C12.7155 41.7505 12.7461 41.8648 12.7768 41.9791C12.7237 42.2384 12.8993 42.4363 12.9605 42.6649C13.1667 42.9772 13.1443 43.3507 13.2056 43.5793C13.2362 43.6936 13.0382 43.8692 12.9545 44.0141C12.9545 44.0141 12.9545 44.0141 12.8402 44.0448C12.9015 44.2734 12.9627 44.502 12.9934 44.6163C13.024 44.7306 12.9403 44.8755 12.826 44.9061C12.7954 44.7918 12.6505 44.7081 12.6505 44.7081C12.6198 44.5938 12.5892 44.4795 12.528 44.2509C12.2157 44.4571 12.2769 44.6857 12.4525 44.8837C12.628 45.0817 12.6893 45.3103 12.8648 45.5083C12.8955 45.6226 12.8955 45.6226 12.8118 45.7675C12.6975 45.7981 12.6669 45.6838 12.5219 45.6001C12.377 45.5165 12.3158 45.2879 12.1402 45.0899C12.0035 45.494 11.9198 45.639 12.126 45.9513C12.3934 46.4921 12.5466 47.0636 12.6997 47.6351C12.7303 47.7494 12.7303 47.7494 12.6467 47.8944L12.5323 47.925C12.4405 47.5821 12.2343 47.2698 12.1118 46.8126L11.9975 46.8432C11.9444 47.1025 11.8914 47.3617 11.9526 47.5903C11.9302 47.9638 12.0527 48.421 12.0303 48.7946C12.0609 48.9089 11.9466 48.9395 11.9773 49.0538L11.863 49.0844C11.8017 48.8558 11.8241 48.4823 11.7629 48.2537L11.6486 48.2843C11.5955 48.5436 11.6261 48.6579 11.5731 48.9171C11.52 49.1763 11.5813 49.4049 11.5283 49.6641C11.5589 49.7784 11.2997 49.7254 11.1017 49.901C10.965 50.3051 10.7139 50.7399 10.3792 51.3196C10.6385 51.3727 10.8671 51.3114 11.065 51.1359C11.461 50.7847 11.8569 50.4336 12.108 49.9988C12.2753 49.709 12.3284 49.4498 12.4957 49.1599C12.5794 49.015 12.7467 48.7251 12.7998 48.4659C12.9896 47.8025 13.1487 47.0248 13.2242 46.392C13.4894 45.0959 13.4424 44.0059 13.2198 42.718C12.9441 41.6893 12.9277 40.7136 12.7664 39.6543C12.6827 39.7992 12.3786 40.4932 12.4705 40.8361ZM-3.78348 13.0943C-3.81411 12.98 -3.76106 12.7207 -3.79169 12.6064C-3.73864 12.3472 -3.54066 12.1716 -3.36511 12.3696C-2.8997 12.7349 -2.43428 13.1003 -2.16685 13.6411C-1.75448 14.2657 -1.31149 15.0046 -0.784823 15.5985C-0.372457 16.223 0.154208 16.817 0.680875 17.4109C0.825803 17.4946 0.970732 17.5782 1.11566 17.6619C1.11566 17.6619 1.11566 17.6619 1.19934 17.517C0.993154 17.2047 0.672669 16.9231 0.435859 16.4965C0.229676 16.1842 0.0234929 15.8719 -0.0683877 15.529C-0.0990153 15.4147 -0.0153401 15.2698 -0.0153401 15.2698C0.0989615 15.2392 0.243893 15.3228 0.358192 15.2922C0.503121 15.3759 0.792977 15.5432 0.937906 15.6269C0.937906 15.6269 0.937906 15.6269 1.02158 15.482C0.876652 15.3983 0.846026 15.284 0.731724 15.3146C0.327565 15.1779 0.0907578 14.7513 -0.366449 14.8738L-0.511379 14.7902C-1.79332 13.6636 -2.64867 12.3002 -3.61833 10.9674C-4.17563 10.2591 -4.73292 9.55091 -5.32084 8.72838C-6.11494 7.59357 -6.79474 6.42813 -7.36024 5.23207C-7.65831 4.57689 -7.987 3.8074 -8.31569 3.03792C-8.5525 2.61134 -8.70563 2.03984 -8.94244 1.61326C-9.14863 1.30098 -9.32418 1.103 -9.66709 1.19488C-9.78139 1.22551 -9.92632 1.14183 -10.0406 1.17246C-10.0406 1.17246 -10.0406 1.17247 -10.01 1.28677C-9.75076 1.33981 -9.57521 1.53779 -9.31598 1.59083C-9.54458 1.65209 -9.65888 1.68271 -9.77318 1.71334C-9.77318 1.71334 -9.77318 1.71335 -9.74256 1.82764C-9.62825 1.79702 -9.59763 1.91132 -9.48332 1.88069C-9.3384 1.96437 -9.19347 2.04804 -9.07917 2.01741C-9.19347 2.04804 -9.27714 2.19297 -9.50575 2.25422C-9.36082 2.3379 -9.36082 2.3379 -9.21589 2.42157C-9.07096 2.50525 -8.92603 2.58892 -8.81173 2.5583C-8.92603 2.58892 -9.0097 2.73385 -9.23831 2.7951C-9.20768 2.9094 -9.06275 2.99308 -9.0015 3.22168C-8.52788 4.07484 -7.97059 4.78307 -7.49697 5.63623C-7.02335 6.48939 -6.54973 7.34254 -6.22104 8.11203C-5.71679 9.07949 -5.29622 10.1919 -4.87565 11.3043C-4.63884 11.7308 -4.40203 12.1574 -4.24889 12.7289C-4.15701 13.0718 -4.14881 13.5597 -4.05693 13.9026L-4.0263 14.0169L-3.912 13.9863C-3.74465 13.6964 -3.6916 13.4372 -3.78348 13.0943ZM4.88 23.0237C5.14743 23.5646 5.33119 24.2504 5.59863 24.7913C5.72114 25.2485 5.92732 25.5607 6.04983 26.0179C6.17234 26.4751 6.18054 26.963 6.18875 27.4508C6.22758 28.053 6.23579 28.5408 6.24399 29.0286C6.22158 29.4021 6.16853 29.6614 6.03181 30.0655C6.29104 30.1186 6.20736 30.2635 6.04001 30.5534C5.92571 30.584 5.95634 30.6983 5.98696 30.8126C6.13189 30.8963 6.27682 30.9799 6.39112 30.9493C6.30745 31.0943 6.22377 31.2392 6.1401 31.3841C6.2544 31.3535 6.3687 31.3229 6.483 31.2922C6.74223 31.3453 6.88716 31.429 6.83411 31.6882C6.87295 32.2903 6.91178 32.8924 6.95062 33.4946C6.98124 33.6089 7.01187 33.7232 7.01187 33.7232C7.47728 34.0885 7.82839 34.4845 8.29381 34.8498L8.40811 34.8192C8.34685 34.5906 8.36927 34.217 8.30802 33.9884C8.17731 33.0434 7.84862 32.2739 7.51992 31.5044C7.42804 31.1615 7.22186 30.8492 7.01568 30.537C6.98505 30.4227 6.87075 30.4533 6.84012 30.339C6.58089 30.2859 6.55027 30.1716 6.60331 29.9124C6.62573 29.5389 6.79308 29.249 6.8155 28.8755C6.89097 28.2427 6.88277 27.7549 6.95823 27.1221C6.92761 27.0078 7.01128 26.8629 7.09495 26.718C7.29293 26.5424 7.23168 26.3138 7.05612 26.1158C6.78869 25.575 6.43757 25.179 6.28444 24.6075C6.04763 24.1809 6.15372 23.6625 6.66398 23.2807L6.74765 23.1358C5.96176 22.4888 5.14523 21.7275 4.24503 21.1112C4.24503 21.1112 4.24503 21.1112 4.13073 21.1418C4.20019 21.8583 4.61256 22.4828 4.88 23.0237ZM0.763529 29.1495C1.06159 29.8047 0.581965 30.3007 0.506499 30.9335C0.933077 30.6967 0.81057 30.2395 0.977918 29.9496C1.14527 29.6598 1.16769 29.2862 1.30441 28.8821C1.33504 28.9964 1.47997 29.0801 1.54122 29.3087C1.62489 29.1637 1.70857 29.0188 1.67794 28.9045C1.76161 28.7596 1.70036 28.531 1.66973 28.4167C1.63911 28.3024 1.72278 28.1574 1.86771 28.2411C2.09631 28.1799 2.17999 28.0349 2.11873 27.8063C2.14116 27.4328 2.04927 27.0899 2.07169 26.7164C2.24725 26.9143 2.27788 27.0286 2.45343 27.2266L2.56773 27.196C2.50648 26.9674 2.55953 26.7081 2.49827 26.4795C2.46765 26.3652 2.55132 26.2203 2.52069 26.106C2.42881 25.7631 2.48186 25.5039 2.38998 25.161C2.50428 25.1304 2.50428 25.1304 2.64921 25.214C2.44303 24.9017 2.38177 24.6731 2.20622 24.4752C2.32052 24.4445 2.43482 24.4139 2.54912 24.3833C2.45724 24.0404 2.51029 23.7812 2.41841 23.4383C2.38778 23.3239 2.24285 23.2403 2.09792 23.1566C2.01425 23.3015 2.01425 23.3015 1.93058 23.4465C1.80206 24.3385 1.70417 25.3447 1.34705 26.298C1.04298 26.992 0.655234 27.8309 0.38179 28.6393C0.298116 28.7842 0.24507 29.0434 0.161396 29.1884C-0.0059544 29.4782 -0.142676 29.8824 -0.485581 29.9742C-0.714185 30.0355 -0.797858 30.1804 -0.591674 30.4927C-0.561048 30.607 -0.561048 30.607 -0.530421 30.7213C-0.446746 30.5764 -0.248772 30.4008 -0.165097 30.2559C-0.165097 30.2559 -0.0507954 30.2253 -0.0201679 30.3396C-0.187516 30.6294 -0.209937 31.003 -0.377287 31.2928C-0.377287 31.2928 -0.262985 31.2622 -0.232357 31.3765C0.414618 30.5906 0.604387 29.9272 0.763529 29.1495ZM-4.16683 17.6073C-3.99127 17.8052 -3.89939 18.1481 -3.80751 18.491C-3.74626 18.7197 -3.60133 18.8033 -3.54007 19.0319L-3.65438 19.0626C-3.82993 18.8646 -3.97486 18.7809 -4.15042 18.5829L-4.26472 18.6136C-4.17284 18.9565 -3.99728 19.1544 -3.9054 19.4973C-3.87477 19.6116 -3.87477 19.6116 -3.95845 19.7566C-3.98907 19.6423 -4.10338 19.6729 -4.134 19.5586C-4.27893 19.4749 -4.34019 19.2463 -4.37081 19.132L-4.48511 19.1626C-4.45449 19.2769 -4.42386 19.3912 -4.39323 19.5055C-4.30135 19.8485 -4.20947 20.1914 -4.14822 20.42C-4.14822 20.42 -4.11759 20.5343 -4.23189 20.5649L-4.37682 20.4812C-4.583 20.1689 -4.64426 19.9403 -4.85044 19.6281C-5.24639 19.9792 -5.64234 20.3303 -6.0383 20.6814C-6.12197 20.8263 -6.06071 21.0549 -5.99946 21.2835L-5.96883 21.3978C-5.49522 22.251 -5.00738 22.2428 -4.21548 21.5406C-3.50725 20.9833 -3.26443 20.0606 -3.10529 19.283C-3.10529 19.283 -3.13592 19.1687 -3.16654 19.0544C-3.57891 18.4298 -3.87697 17.7746 -4.28934 17.1501C-4.28934 17.1501 -4.31997 17.0358 -4.43427 17.0664C-4.37301 17.295 -4.34238 17.4093 -4.16683 17.6073ZM18.5071 27.7029C17.8131 27.3988 17.1415 26.7212 16.1964 26.8519C16.4863 27.0192 16.7761 27.1866 17.066 27.3539C17.2109 27.4376 17.3865 27.6356 17.5314 27.7193C17.5314 27.7193 17.562 27.8336 17.5927 27.9479C17.4784 27.9785 17.3641 28.0091 17.3641 28.0091C16.9293 27.7581 16.4639 27.3928 16.0291 27.1418C15.5943 26.8907 15.1595 26.6397 14.6717 26.6479C14.786 26.6173 14.8166 26.7316 14.9615 26.8153C15.3963 27.0663 15.8311 27.3173 16.2965 27.6826C16.4415 27.7663 16.617 27.9643 16.6476 28.0786C16.7089 28.3072 16.8232 28.2766 17.0824 28.3296C17.456 28.352 17.8295 28.3745 18.203 28.3969C19.293 28.3498 20.436 28.0436 21.4035 27.5393C21.5178 27.5087 21.5708 27.2495 21.5708 27.2495C21.4259 27.1658 21.334 26.8229 21.0217 27.0291C21.0217 27.0291 21.0217 27.0291 21.0523 27.1434C21.083 27.2577 21.1136 27.372 21.2585 27.4556C21.1442 27.4863 20.9993 27.4026 20.885 27.4332C20.7401 27.3495 20.5951 27.2659 20.4502 27.1822C20.4584 27.67 20.4584 27.67 20.0543 27.5333C19.9093 27.4496 19.7644 27.366 19.5052 27.3129C19.5052 27.3129 19.5358 27.4272 19.4215 27.4578C19.5664 27.5415 19.5664 27.5415 19.7114 27.6252C19.8787 27.3353 19.9093 27.4496 19.94 27.5639C19.8257 27.5946 19.7114 27.6252 19.5664 27.5415C19.4215 27.4578 19.2766 27.3742 19.1316 27.2905C19.1316 27.2905 19.1316 27.2905 19.0173 27.3211C19.048 27.4354 19.1929 27.5191 19.2235 27.6334C19.2235 27.6334 19.1092 27.664 19.1398 27.7783C18.6438 27.2987 18.1784 26.9334 17.5456 26.8579C17.5456 26.8579 17.5456 26.8579 17.462 27.0028C18.011 27.2232 18.3009 27.3906 18.5071 27.7029ZM14.8472 26.8459C14.7105 27.2501 14.5962 27.2807 14.2757 26.999C13.8103 26.6337 13.3143 26.1541 12.6509 25.9643C12.8877 26.3909 13.4062 26.497 13.4144 26.9848L13.3001 27.0154C12.9796 26.7338 12.6285 26.3378 12.308 26.0562C12.1713 26.4603 12.057 26.491 11.8508 26.1787C11.6446 25.8664 11.3547 25.6991 11.1486 25.3868C11.1179 25.2725 11.0036 25.3031 10.8587 25.2194C10.8587 25.2194 10.7444 25.2501 10.775 25.3644C10.9506 25.5623 11.0955 25.646 11.2711 25.844C11.416 25.9277 11.5609 26.0113 11.3629 26.1869C11.2486 26.2175 11.1037 26.1339 11.1037 26.1339C10.8975 25.8216 10.6077 25.6542 10.4015 25.342C10.2566 25.2583 10.2259 25.144 10.028 25.3195C9.94429 25.4645 9.79936 25.3808 9.65443 25.2971C9.44825 24.9848 9.24206 24.6726 8.92158 24.3909C8.74602 24.1929 8.37249 24.1705 8.19694 23.9725L8.11326 24.1175C8.25819 24.2011 8.43375 24.3991 8.57868 24.4828C8.89916 24.7644 9.21964 25.0461 9.57075 25.442C9.57075 25.442 9.60138 25.5563 9.71568 25.5257C10.1811 25.891 10.5016 26.1727 10.9364 26.4237C11.3712 26.6747 11.7753 26.8115 12.1795 26.9482C12.5836 27.0849 13.0184 27.3359 13.4226 27.4726C14.1166 27.7767 14.8412 28.1951 15.6413 27.9807C15.7556 27.9501 15.7863 28.0644 15.9006 28.0338C16.0149 28.0031 16.0149 28.0031 16.1292 27.9725C16.1292 27.9725 16.0985 27.8582 16.2128 27.8276C15.7781 27.5765 15.3126 27.2112 14.8472 26.8459ZM-5.53244 16.6256C-5.53244 16.6256 -5.56307 16.5113 -5.53244 16.6256C-5.36509 16.3357 -5.19774 16.0459 -4.88547 15.8397C-5.03039 15.756 -5.14469 15.7866 -5.28962 15.703C-4.89367 15.3519 -4.58139 15.1457 -4.26912 14.9395C-4.26912 14.9395 -4.26912 14.9395 -4.29974 14.8252C-5.1529 15.2988 -5.86113 15.8561 -6.21825 16.8094C-6.49169 17.6177 -6.53654 18.3647 -6.46707 19.0812C-6.4895 19.4547 -6.28331 19.767 -6.2751 20.2548C-6.2751 20.2548 -6.13018 20.3385 -6.01588 20.3079C-5.67297 20.216 -4.94232 19.2852 -5.0342 18.9422C-5.0342 18.9422 -5.0342 18.9422 -5.06483 18.8279C-5.49141 19.0648 -5.5975 19.5832 -6.19964 19.622C-5.72001 19.126 -5.35469 18.6606 -4.87506 18.1646L-4.90569 18.0503C-5.21796 18.2564 -5.49961 18.5769 -5.81189 18.7831C-5.53024 18.4626 -5.36289 18.1728 -5.11187 17.738C-5.11187 17.738 -5.11187 17.738 -5.14249 17.6237C-5.34047 17.7992 -5.53845 17.9748 -5.76705 18.036C-5.76705 18.036 -5.76705 18.036 -5.79768 17.9217C-5.5997 17.7462 -5.40172 17.5706 -5.23438 17.2808C-5.54665 17.487 -5.85893 17.6931 -6.20184 17.785L-6.23246 17.6707C-5.83651 17.3196 -5.44056 16.9685 -4.93031 16.5868C-4.93031 16.5868 -4.93031 16.5868 -4.96093 16.4725C-5.15891 16.648 -5.27321 16.6786 -5.47118 16.8542L-5.50181 16.7399C-5.30384 16.5643 -5.13649 16.2745 -4.82421 16.0683C-4.82421 16.0683 -4.82421 16.0683 -4.85484 15.954C-5.22016 16.4194 -5.41814 16.595 -5.53244 16.6256ZM10.8216 45.1982C10.5094 45.4044 10.0828 45.6412 9.7705 45.8474C9.45822 46.0535 9.14594 46.2597 8.80304 46.3516C8.68874 46.3822 8.54381 46.2986 8.54381 46.2986C9.51127 45.7943 10.3644 45.3207 11.1257 44.5042C10.3868 44.9472 9.53369 45.4208 8.79483 45.8638L8.76421 45.7495C8.87851 45.7188 8.96218 45.5739 9.07648 45.5433C9.92964 45.0697 10.6379 44.5124 11.491 44.0388C11.6053 44.0081 11.5747 43.8938 11.689 43.8632L11.6584 43.7489C11.4298 43.8101 11.3461 43.9551 11.1175 44.0163C10.5766 44.2838 9.98269 44.8104 9.41118 44.9636C8.72537 45.1473 8.73358 45.6352 8.59686 46.0393C8.42951 46.3292 8.40709 46.7027 8.38467 47.0762L8.41529 47.1905C8.9868 47.0374 10.8605 45.8003 10.8216 45.1982ZM8.27256 48.9439C8.25014 49.3174 8.45633 49.6297 8.54821 49.9726C8.54821 49.9726 8.54821 49.9726 8.57883 50.0869C9.02183 50.8258 9.13613 50.7951 9.76068 50.3828C10.073 50.1766 10.3852 49.9704 10.6669 49.6499C10.7812 49.6193 10.8649 49.4744 10.9485 49.3294C10.2934 49.6275 9.73006 50.2685 8.86869 50.2543L8.83807 50.14C9.26464 49.9032 9.69122 49.6663 10.2015 49.2846C10.6281 49.0478 11.0546 48.811 11.3057 48.3762L11.275 48.2619C10.9628 48.4681 10.6505 48.6743 10.3382 48.8804C9.91162 49.1173 9.37074 49.3847 8.82986 49.6521C8.71556 49.6828 8.60125 49.7134 8.45633 49.6297C8.45633 49.6297 8.45633 49.6297 8.4257 49.5154C8.54 49.4848 8.54 49.4848 8.62368 49.3399C9.16456 49.0724 9.67481 48.6907 10.2157 48.4232C10.4137 48.2477 10.4667 47.9885 10.5198 47.7292C9.92583 48.2559 9.27886 49.0418 8.27256 48.9439ZM11.6086 33.9616C11.7004 34.3045 11.7617 34.5331 11.8229 34.7617C12.068 35.6761 12.3436 36.7048 12.5886 37.6193C12.6499 37.8479 12.5968 38.1071 12.5438 38.3663C12.5438 38.3663 12.6887 38.45 12.803 38.4194C12.9479 38.503 13.0622 38.4724 13.0316 38.3581C13.001 38.2438 13.0847 38.0989 13.0847 38.0989C13.1071 37.7253 13.3357 37.6641 13.7092 37.6865C13.7092 37.6865 13.8235 37.6559 13.9684 37.7396C13.1968 36.2312 12.517 35.0658 11.6086 33.9616ZM22.242 46.6709C21.7766 46.3056 21.3418 46.0546 20.8764 45.6892C20.7314 45.6056 20.5865 45.5219 20.4416 45.4382C20.2966 45.3545 20.1823 45.3852 20.1293 45.6444C19.9926 46.0485 20.2294 46.4751 20.5499 46.7568C21.0765 47.3507 21.7399 47.5405 22.685 47.4098C22.4788 47.0975 22.3869 46.7546 22.242 46.6709ZM8.2031 48.2275C8.43171 48.1662 8.66031 48.105 8.88891 48.0437C9.59714 47.4864 10.3054 46.9291 11.1279 46.3412C11.2422 46.3106 11.181 46.082 11.2646 45.937C10.3278 46.5556 9.39096 47.1741 8.24795 47.4804C8.1949 47.7396 8.14185 47.9989 8.2031 48.2275ZM11.5309 32.7573C11.6758 32.841 11.7064 32.9553 11.8514 33.039C11.8514 33.039 11.8514 33.039 11.9657 33.0084C11.0879 32.0185 10.355 31.1123 9.47726 30.1224C9.42422 30.3816 10.9594 32.9105 11.2492 33.0778C11.3329 32.9329 11.4472 32.9023 11.5309 32.7573ZM10.7888 43.2468C10.2479 43.5143 9.73767 43.896 9.22742 44.2778C9.11312 44.3084 9.06007 44.5676 9.06007 44.5676C9.06007 44.5676 9.0907 44.6819 9.205 44.6513C9.51728 44.4451 9.74588 44.3839 10.0582 44.1777C10.599 43.9102 10.995 43.5591 11.5359 43.2917C11.7338 43.1161 11.8175 42.9712 11.8706 42.712C11.3297 42.9794 11.1011 43.0407 10.7888 43.2468ZM-3.51985 16.8214C-3.71783 16.9969 -3.92401 16.6846 -4.06894 16.601C-3.77088 17.2562 -3.38914 17.7664 -3.09107 18.4216L-2.97677 18.391C-3.0074 18.2767 -2.95435 18.0174 -2.98498 17.9031C-3.10749 17.4459 -3.14632 16.8438 -3.26883 16.3866C-3.33008 16.158 -3.61994 15.9906 -3.76487 15.907L-3.87917 15.9376C-3.78729 16.2805 -3.58111 16.5928 -3.51985 16.8214ZM10.0013 47.6231C9.68903 47.8293 9.37675 48.0355 9.06447 48.2417C8.83587 48.3029 8.60726 48.3642 8.37866 48.4254C8.26436 48.4561 8.15006 48.4867 8.18068 48.601C8.21131 48.7153 8.24194 48.8296 8.35624 48.799C8.47054 48.7683 8.72977 48.8214 8.84407 48.7908C9.58293 48.3478 10.2075 47.9354 10.9463 47.4924C11.0606 47.4618 11.1137 47.2026 11.1974 47.0576C11.1974 47.0576 11.1667 46.9433 11.0524 46.974C10.5952 47.0965 10.283 47.3026 10.0013 47.6231ZM12.4617 33.488C12.7516 33.6553 13.0108 33.7084 13.27 33.7614C14.0477 33.9206 14.5438 34.4002 15.1235 34.7349C15.299 34.9329 15.5583 34.9859 15.7338 35.1839C15.7338 35.1839 15.7338 35.1839 15.8481 35.1533C15.7032 35.0696 15.6419 34.841 15.497 34.7573C15.3214 34.5593 15.1459 34.3614 14.856 34.194C14.5662 34.0267 14.2763 33.8593 14.0171 33.8063C13.7579 33.7532 13.468 33.5859 13.2088 33.5328C13.0638 33.4492 12.9189 33.3655 12.9189 33.3655C12.774 33.2818 12.6291 33.1981 12.4841 33.1145C12.4841 33.1145 12.3698 33.1451 12.4005 33.2594C12.2862 33.29 12.4311 33.3737 12.4617 33.488ZM19.6497 46.1404C19.7558 45.622 19.8088 45.3627 19.8312 44.9892C19.4271 44.8525 18.9923 44.6015 18.5881 44.4647C18.5881 44.4647 18.5881 44.4647 18.4738 44.4954C18.8556 45.0056 19.2679 45.6302 19.6497 46.1404ZM2.47526 19.9928L2.52831 19.7336C2.35276 19.5356 2.1772 19.3376 2.00165 19.1396C2.00985 19.6275 2.04869 20.2296 2.05689 20.7174C2.14057 20.5725 2.30791 20.2826 2.47526 19.9928ZM1.00415 26.3899C0.775543 26.4511 0.493893 26.7716 0.265291 26.8329C-0.275589 27.1003 -0.412312 27.5045 -0.663336 27.9392C-0.663336 27.9392 -0.663336 27.9392 -0.632709 28.0535C-0.0387796 27.5269 0.410219 26.9165 1.00415 26.3899ZM1.49799 25.0325C0.957109 25.2999 0.19583 26.1164 0.173411 26.49C0.683663 26.1082 1.19392 25.7265 1.49799 25.0325ZM11.8301 47.1331C11.3729 47.2556 11.0913 47.5761 11.0995 48.0639C11.5873 48.0557 11.922 47.476 11.8301 47.1331ZM0.954909 23.4629C0.642631 23.6691 0.475283 23.9589 0.193632 24.2794C0.818188 23.867 1.26718 23.2567 1.92237 22.9586C2.08972 22.6688 2.08972 22.6688 2.02846 22.4402C1.66314 22.9056 1.23656 23.1424 0.954909 23.4629ZM20.7543 26.4882C21.3564 26.4494 22.2932 25.8308 22.285 25.343C21.7748 25.7247 21.1502 26.1371 20.7543 26.4882ZM12.4153 39.2583C12.5296 39.2277 12.5602 39.342 12.6745 39.3114C12.7888 39.2807 12.9031 39.2501 12.9031 39.2501C12.8725 39.1358 12.8418 39.0215 12.8112 38.9072C12.8112 38.9072 12.6969 38.9378 12.6663 38.8235C12.2928 38.8011 12.0335 38.7481 11.66 38.7256C11.66 38.7256 11.6906 38.8399 11.5763 38.8706C11.8662 39.0379 12.1254 39.091 12.4153 39.2583ZM1.63412 17.768C1.55045 17.9129 1.55045 17.9129 1.63412 17.768C1.93219 18.4232 2.34455 19.0478 2.87122 19.6417L2.98552 19.6111C2.45885 19.0171 2.04649 18.3926 1.63412 17.768ZM22.6974 25.9675C22.1259 26.1207 21.8442 26.4411 22.1117 26.982C22.2484 26.5779 22.5301 26.2574 22.6974 25.9675ZM15.6512 23.4453C16.2227 23.2921 16.8472 22.8798 17.3881 22.6123C17.3575 22.498 17.3575 22.498 17.3575 22.498C16.8166 22.7655 16.1614 23.0635 15.6512 23.4453ZM11.5321 46.4779C11.4178 46.5085 11.3341 46.6535 11.2504 46.7984C11.5933 46.7065 11.7076 46.6759 11.9668 46.7289C11.9362 46.6146 12.0199 46.4697 11.9893 46.3554C11.8443 46.2717 11.73 46.3024 11.5321 46.4779ZM18.4438 51.2414C18.3825 51.0128 18.1764 50.7005 18.1151 50.4719C17.8335 50.7924 18.009 50.9903 18.4438 51.2414ZM16.1069 53.9502C16.1906 53.8052 16.16 53.6909 16.2436 53.546L16.1293 53.5766C16.0987 53.4623 15.9538 53.3787 15.9538 53.3787C15.9232 53.2644 16.0068 53.1194 15.9762 53.0051C15.6945 53.3256 15.6109 53.4705 16.1069 53.9502ZM6.56287 34.3335L6.64655 34.1886C6.53224 34.2192 6.50162 34.1049 6.38731 34.1356C6.18934 34.3111 5.99136 34.4867 5.79339 34.6622C5.79339 34.6622 5.79339 34.6622 5.82401 34.7765C6.13629 34.5703 6.33427 34.3948 6.56287 34.3335ZM4.84057 15.5613L4.8712 15.6756C5.2141 15.5837 5.55701 15.4918 5.89991 15.3999L5.86928 15.2856C5.41208 15.4081 5.06917 15.5 4.84057 15.5613ZM18.9677 43.138C18.6248 43.2298 18.3962 43.2911 18.0533 43.383C18.1982 43.4667 18.6554 43.3441 18.9677 43.138ZM-1.87141 31.2031C-1.49788 31.2256 -1.26928 31.1643 -1.24686 30.7908C-1.36116 30.8214 -1.55914 30.997 -1.87141 31.2031ZM25.7695 51.6061C25.7695 51.6061 25.7389 51.4918 25.8532 51.4612C25.5939 51.4081 25.3347 51.3551 24.9612 51.3326C24.9612 51.3326 24.9918 51.447 24.8775 51.4776C25.1367 51.5306 25.5103 51.553 25.7695 51.6061ZM12.1014 44.4878C11.6135 44.496 11.5299 44.6409 11.6524 45.0981C11.8197 44.8082 11.9034 44.6633 12.1014 44.4878ZM9.85256 50.7257C10.0812 50.6644 10.4241 50.5726 10.622 50.397L10.5914 50.2827C10.2485 50.3746 10.0505 50.5501 9.85256 50.7257ZM12.7932 42.9548C12.6258 43.2446 12.5422 43.3896 12.8626 43.6712C12.8851 43.2977 12.8238 43.0691 12.7932 42.9548ZM11.8586 45.4104C11.63 45.4716 11.5463 45.6166 11.4626 45.7615L11.6075 45.8452C11.6912 45.7002 11.7749 45.5553 11.8586 45.4104ZM6.41574 32.4128C6.33207 32.5578 6.24839 32.7027 6.16472 32.8476C6.53825 32.87 6.50762 32.7557 6.41574 32.4128Z" fill="url(#paint0_linear_10_261)"/>
<defs>
<linearGradient id="paint0_linear_10_261" x1="124.841" y1="-2.14743" x2="-116.986" y2="62.6499" gradientUnits="userSpaceOnUse">
<stop stop-color="#AE803F"/>
<stop offset="0.2019" stop-color="#C4A266"/>
<stop offset="0.4009" stop-color="#D7BE86"/>
<stop offset="0.5108" stop-color="#DEC992"/>
<stop offset="1" stop-color="#DEC992"/>
</linearGradient>
</defs>
</svg>
